<?xml version="1.0" standalone="no"?>
<!DOCTYPE svg PUBLIC "-//W3C//DTD SVG 20010904//EN" "http://www.w3.org/TR/2001/REC-SVG-20010904/DTD/svg10.dtd">
<!-- Created using Krita: https://krita.org -->
<svg xmlns="http://www.w3.org/2000/svg" 
    xmlns:xlink="http://www.w3.org/1999/xlink"
    xmlns:krita="http://krita.org/namespaces/svg/krita"
    xmlns:sodipodi="http://sodipodi.sourceforge.net/DTD/sodipodi-0.dtd"
    width="57.6pt"
    height="57.6pt"
    viewBox="0 0 57.6 57.6">
<defs/>
<ellipse id="shape0" transform="translate(5.76, 7.2)" rx="23.04" ry="7.2" cx="23.04" cy="7.2" fill="none" stroke="#000000" stroke-width="2.88" stroke-linecap="square" stroke-linejoin="bevel"/><path id="shape0" transform="matrix(0.999999986381548 0 0 0.999999986381548 5.75999999999999 24)" sodipodi:type="arc" sodipodi:rx="23.0400003137691" sodipodi:ry="7.20000009805286" sodipodi:cx="23.0400003137691" sodipodi:cy="8.81745707394106e-16" sodipodi:start="6.28318530717959" sodipodi:end="3.14159265358979" sodipodi:open="true" d="M0 0C-1.55431e-15 3.97645 10.3154 7.2 23.04 7.2C35.7646 7.2 46.08 3.97645 46.08 2.64524e-15" fill="none" stroke="#000000" stroke-width="2.88" stroke-linecap="square" stroke-linejoin="bevel"/><path id="shape01" transform="matrix(0.999999972763096 0 0 0.999999972763096 5.76000031376918 43.2)" sodipodi:type="arc" sodipodi:rx="23.0400003137691" sodipodi:ry="7.20000009805286" sodipodi:cx="23.0400003137691" sodipodi:cy="-1.77635683940025e-15" sodipodi:start="6.28318530717959" sodipodi:end="3.14159265358979" sodipodi:open="true" d="M0 1.9724e-14C3.79978e-14 3.97645 10.3154 7.2 23.04 7.2C35.7646 7.2 46.08 3.97645 46.08 2.55667e-14" fill="none" stroke="#000000" stroke-width="2.88" stroke-linecap="square" stroke-linejoin="bevel"/><path id="shape1" transform="translate(5.75995, 14.88)" fill="none" stroke="#000000" stroke-width="2.88" stroke-linecap="square" stroke-linejoin="miter" stroke-miterlimit="2" krita:marker-fill-method="auto" d="M0.0001 27.84L0 0" sodipodi:nodetypes="cc"/><path id="shape02" transform="matrix(0.999999982763823 0 0 0.999999982763823 51.84 14.88)" fill="none" stroke="#000000" stroke-width="2.88" stroke-linecap="square" stroke-linejoin="miter" stroke-miterlimit="2" krita:marker-fill-method="auto" d="M0.0001 27.84L0 0" sodipodi:nodetypes="cc"/><path id="shape03" transform="matrix(0.999999959144644 0 0 0.999999959144644 5.76000062753832 33.6)" sodipodi:type="arc" sodipodi:rx="23.0400003137691" sodipodi:ry="7.20000009805286" sodipodi:cx="23.0400003137691" sodipodi:cy="-1.77635683940025e-15" sodipodi:start="6.28318530717959" sodipodi:end="3.14159265358979" sodipodi:open="true" d="M0 1.9724e-14C3.79978e-14 3.97645 10.3154 7.2 23.04 7.2C35.7646 7.2 46.08 3.97645 46.08 2.55667e-14" fill="none" stroke="#000000" stroke-width="2.88" stroke-linecap="square" stroke-linejoin="bevel"/><ellipse id="shape2" transform="translate(36.6030571555057, 33.6814397729478)" rx="9.55126638257885" ry="9.55126638257886" cx="9.55126638257885" cy="9.55126638257886" fill="#ffffff" fill-rule="evenodd" stroke="#000000" stroke-width="2.88" stroke-linecap="square" stroke-linejoin="bevel"/><path id="shape3" transform="translate(46.08, 35.52)" fill="none" stroke="#000000" stroke-width="2.88" stroke-linecap="square" stroke-linejoin="miter" stroke-miterlimit="2" d="M0 0L0 15.36" sodipodi:nodetypes="cc"/><path id="shape4" transform="translate(38.3999999999762, 43.2)" fill="none" stroke="#000000" stroke-width="2.88" stroke-linecap="square" stroke-linejoin="miter" stroke-miterlimit="2" d="M0 0.0001L15.36 0" sodipodi:nodetypes="cc"/>
</svg>
